<svg 
 xmlns="http://www.w3.org/2000/svg"
 xmlns:xlink="http://www.w3.org/1999/xlink"
 width="34px" height="20px">
<path fill-rule="evenodd"  fill="rgb(102, 102, 102)"
 d="M33.836,10.550 C33.836,10.550 28.895,19.111 17.016,20.000 C17.016,20.000 8.127,20.154 0.197,10.550 C0.197,10.550 -0.246,10.236 0.197,9.450 C0.197,9.450 8.511,-0.000 17.016,-0.000 C17.016,-0.000 24.533,-0.706 33.836,9.450 C33.836,9.450 34.227,9.179 33.836,10.550 ZM17.016,4.187 C13.538,4.187 10.719,7.014 10.719,10.500 C10.719,13.986 13.538,16.813 17.016,16.813 C20.493,16.813 23.312,13.986 23.312,10.500 C23.312,7.014 20.493,4.187 17.016,4.187 ZM17.016,13.656 C15.281,13.656 13.875,12.243 13.875,10.500 C13.875,8.757 15.281,7.344 17.016,7.344 C18.750,7.344 20.156,8.757 20.156,10.500 C20.156,12.243 18.750,13.656 17.016,13.656 Z"/>
</svg>