<svg 
 xmlns="http://www.w3.org/2000/svg"
 xmlns:xlink="http://www.w3.org/1999/xlink"
 width="100%" height="100%">
<path fill-rule="evenodd"  stroke="rgb(67, 94, 131)" stroke-width="3px" stroke-linecap="round" stroke-linejoin="round" fill="none"
 d="M23.391,1.500 C32.115,1.500 39.187,8.663 39.187,17.500 C39.187,26.337 32.115,33.500 23.391,33.500 C14.666,33.500 7.594,26.337 7.594,17.500 C7.594,8.663 14.666,1.500 23.391,1.500 Z"/>
<path fill-rule="evenodd"  stroke="rgb(67, 94, 131)" stroke-width="3px" stroke-linecap="round" stroke-linejoin="round" fill="none"
 d="M41.774,12.633 C44.585,13.153 46.328,14.125 46.485,15.524 C46.889,19.131 36.490,23.923 23.946,26.172 C12.094,28.298 2.326,27.410 1.536,24.241 C1.269,23.170 2.050,21.946 3.657,20.695 "/>
<path fill-rule="evenodd"  stroke="rgb(67, 94, 131)" stroke-width="3px" stroke-linecap="round" stroke-linejoin="round" fill="none"
 d="M19.500,8.500 C20.942,7.663 22.698,7.500 24.500,7.500 M24.500,7.500 C24.732,7.589 27.335,7.479 28.500,8.500 C29.862,9.694 30.952,10.913 31.907,12.577 "/>
</svg>