<svg 
 xmlns="http://www.w3.org/2000/svg"
 xmlns:xlink="http://www.w3.org/1999/xlink"
 width="30px" height="34px">
<defs>
<linearGradient id="PSgrad_0" x1="0%" x2="0%" y1="100%" y2="0%">
  <stop offset="0%" stop-color="rgb(59,137,246)" stop-opacity="1" />
  <stop offset="100%" stop-color="rgb(59,137,246)" stop-opacity="1" />
</linearGradient>

</defs>
<path fill-rule="evenodd"  fill="url(#PSgrad_0)"
 d="M30.009,24.124 L21.473,24.124 L18.891,33.987 L15.556,33.987 L18.138,24.124 L8.132,24.124 L5.550,33.987 L2.214,33.987 L4.797,24.124 L-0.009,24.124 L-0.009,20.836 L5.657,20.836 L7.666,13.164 L-0.009,13.164 L-0.009,9.876 L8.526,9.876 L11.109,0.013 L14.444,0.013 L11.862,9.876 L21.867,9.876 L24.450,0.013 L27.785,0.013 L25.203,9.876 L30.009,9.876 L30.009,13.164 L24.342,13.164 L22.334,20.836 L30.009,20.836 L30.009,24.124 ZM21.007,13.164 L11.001,13.164 L8.993,20.836 L18.998,20.836 L21.007,13.164 Z"/>
</svg>