<svg 
 xmlns="http://www.w3.org/2000/svg"
 xmlns:xlink="http://www.w3.org/1999/xlink"
 width="14px" height="16px">
<path fill-rule="evenodd"  fill="rgb(255, 255, 255)"
 d="M13.873,11.309 L9.964,11.309 L8.782,15.891 L7.254,15.891 L8.437,11.309 L3.855,11.309 L2.673,15.891 L1.145,15.891 L2.328,11.309 L0.127,11.309 L0.127,9.782 L2.722,9.782 L3.642,6.218 L0.127,6.218 L0.127,4.691 L4.036,4.691 L5.218,0.109 L6.745,0.109 L5.563,4.691 L10.145,4.691 L11.327,0.109 L12.854,0.109 L11.672,4.691 L13.873,4.691 L13.873,6.218 L11.278,6.218 L10.358,9.782 L13.873,9.782 L13.873,11.309 ZM9.751,6.218 L5.169,6.218 L4.249,9.782 L8.831,9.782 L9.751,6.218 Z"/>
</svg>