<?xml version="1.0" encoding="utf-8"?>
<!-- Generator: Adobe Illustrator 19.2.1, SVG Export Plug-In . SVG Version: 6.00 Build 0)  -->
<svg version="1.1" id="Layer_1" xmlns="http://www.w3.org/2000/svg" xmlns:xlink="http://www.w3.org/1999/xlink" x="0px" y="0px"
	 viewBox="0 0 34 34" style="enable-background:new 0 0 34 34;" xml:space="preserve">
<style type="text/css">
	.st0{fill:url(#SVGID_1_);}
</style>
<linearGradient id="SVGID_1_" gradientUnits="userSpaceOnUse" x1="17" y1="9" x2="17" y2="24" gradientTransform="matrix(1 0 0 -1 0 34)">
	<stop  offset="0" style="stop-color:#41BEED"/>
	<stop  offset="1" style="stop-color:#3064B6"/>
</linearGradient>
<path class="st0" d="M22,17.5c1.5,0,2.7-1.2,2.7-2.7s-1.2-2.7-2.7-2.7s-2.7,1.2-2.7,2.7S20.4,17.5,22,17.5z M13.7,16.4
	c1.8,0,3.3-1.4,3.3-3.2S15.5,10,13.7,10s-3.3,1.4-3.3,3.2S11.9,16.4,13.7,16.4z M22,19.6c-2,0-6.1,1-6.1,2.9V25H28v-2.4
	C28,20.6,24,19.6,22,19.6z M13.7,18.6c-2.6,0-7.7,1.3-7.7,3.8V25h7.7v-2.4c0-0.9,0.4-2.5,2.6-3.7C15.4,18.7,14.4,18.6,13.7,18.6z"/>
</svg>
