<?xml version="1.0" encoding="utf-8"?>
<!-- Generator: Adobe Illustrator 19.2.1, SVG Export Plug-In . SVG Version: 6.00 Build 0)  -->
<svg version="1.1" id="Layer_1" xmlns="http://www.w3.org/2000/svg" xmlns:xlink="http://www.w3.org/1999/xlink" x="0px" y="0px"
	 viewBox="0 0 34 34" style="enable-background:new 0 0 34 34;" xml:space="preserve">
<style type="text/css">
	.st0{fill:url(#SVGID_1_);}
	.st1{fill-rule:evenodd;clip-rule:evenodd;fill:url(#SVGID_2_);}
</style>
<g>
	<g>
		<linearGradient id="SVGID_1_" gradientUnits="userSpaceOnUse" x1="20.9977" y1="24" x2="20.9977" y2="11.9816">
			<stop  offset="0" style="stop-color:#B0E8CD"/>
			<stop  offset="1" style="stop-color:#56CAD8"/>
		</linearGradient>
		<path class="st0" d="M26.7,13.7l-1.5-1.5c-0.3-0.3-0.9-0.3-1.2,0l-1.3,1.3c-0.2,0.2-0.2,0.4,0,0.6l2.2,2.2c0.2,0.2,0.4,0.2,0.6,0
			l1.3-1.3C27.1,14.7,27.1,14.1,26.7,13.7z M21.5,15.3c-0.2-0.2-0.4-0.2-0.6,0l-3.1,3.1c-0.2,0.2-0.2,0.4,0,0.6l2.2,2.2
			c0.2,0.2,0.4,0.2,0.6,0l3.1-3.1c0.2-0.2,0.2-0.4,0-0.6L21.5,15.3z M16.6,20.3c-0.1-0.1-0.3-0.1-0.4,0c0,0,0,0.1-0.1,0.1l0,0.1
			L15,23.6l0,0.1c0,0.1,0,0.2,0.1,0.3c0.1,0.1,0.2,0.1,0.3,0.1l0.1,0l3.1-1.1l0.1,0c0,0,0.1,0,0.1-0.1c0.1-0.1,0.1-0.3,0-0.4
			L16.6,20.3z"/>
	</g>
</g>
<linearGradient id="SVGID_2_" gradientUnits="userSpaceOnUse" x1="12" y1="24" x2="12" y2="8">
	<stop  offset="0" style="stop-color:#B0E8CD"/>
	<stop  offset="1" style="stop-color:#56CAD8"/>
</linearGradient>
<path class="st1" d="M19,12.9l-4,4.1c-0.4,0.4-0.6,0.8-0.7,1.3c-0.3,0.1-0.7,0.3-0.9,0.6c0,0,0,0.1-0.1,0.1H8v2h4.4l-0.7,2
	c0,0.1,0,0.1-0.1,0.2c-0.1,0.3-0.1,0.5,0,0.8H7c-1.9,0-3-1-3-3V11c0-1.9,1-3,3-3h10c1.9,0,3,1.1,3,3v1.3
	C19.6,12.4,19.3,12.6,19,12.9z M8,17h4v-2H8V17z M16,11H8v2h8V11z"/>
</svg>
