<?xml version="1.0" encoding="utf-8"?>
<!-- Generator: Adobe Illustrator 19.2.1, SVG Export Plug-In . SVG Version: 6.00 Build 0)  -->
<svg version="1.1" id="Layer_1" xmlns="http://www.w3.org/2000/svg" xmlns:xlink="http://www.w3.org/1999/xlink" x="0px" y="0px"
	 viewBox="0 0 30 23" style="enable-background:new 0 0 30 23;" xml:space="preserve">
<style type="text/css">
	.st0{fill:url(#SVGID_1_);}
</style>
<linearGradient id="SVGID_1_" gradientUnits="userSpaceOnUse" x1="15" y1="1" x2="15" y2="24" gradientTransform="matrix(1 0 0 -1 0 24)">
	<stop  offset="0" style="stop-color:#29AEE0"/>
	<stop  offset="1" style="stop-color:#0D5095"/>
</linearGradient>
<path id="SVGID_525_" class="st0" d="M25.9,23H4.1C1.8,23,0,22.5,0,20.3V4.1C0,1.8,1.8,0,4.1,0h21.8C28.2,0,30,1.8,30,4.1v16.2
	C30,22.5,28.2,23,25.9,23z M18.8,11.1c-0.4-0.3-5.6-4-5.9-4.2c-0.3-0.2-0.7,0.1-0.7,0.5c0,0.3,0,7.9,0,8.4c0,0.4,0.4,0.6,0.6,0.4
	c0.4-0.3,5.6-4,5.9-4.2C19.1,11.8,19.1,11.3,18.8,11.1z"/>
</svg>
