<?xml version="1.0" encoding="utf-8"?>
<!-- Generator: Adobe Illustrator 19.2.1, SVG Export Plug-In . SVG Version: 6.00 Build 0)  -->
<svg version="1.1" id="Layer_1" xmlns="http://www.w3.org/2000/svg" xmlns:xlink="http://www.w3.org/1999/xlink" x="0px" y="0px"
	 viewBox="0 0 34 34" style="enable-background:new 0 0 34 34;" xml:space="preserve">
<style type="text/css">
	.st0{fill:url(#SVGID_1_);}
</style>
<linearGradient id="SVGID_1_" gradientUnits="userSpaceOnUse" x1="17" y1="27" x2="17" y2="8.0001">
	<stop  offset="0" style="stop-color:#B0E8CD"/>
	<stop  offset="1" style="stop-color:#56CAD8"/>
</linearGradient>
<path class="st0" d="M27,27H7c-1.1,0-2-0.9-2-2v-9h24v9C29,26.1,28.1,27,27,27z M15,20H9c-0.6,0-1,0.4-1,1c0,0.6,0.4,1,1,1h6
	c0.6,0,1-0.4,1-1C16,20.4,15.6,20,15,20z M5,10c0-1.1,0.9-2,2-2h20c1.1,0,2,0.9,2,2v3H5V10z"/>
</svg>
