<svg xmlns="http://www.w3.org/2000/svg" xmlns:xlink="http://www.w3.org/1999/xlink" preserveAspectRatio="xMidYMid" width="21" height="25" viewBox="0 0 21 25">
  <defs>
    <linearGradient id="grad1" x1="0%" y1="0%" x2="0%" y2="100%">
      <stop offset="0%" style="stop-color:#35c1df;stop-opacity:1" />
      <stop offset="100%" style="stop-color:#ccfec3;stop-opacity:1" />
    </linearGradient>
  </defs>
  <path d="M20.505,23.235 L17.757,24.886 C17.299,25.122 16.726,25.004 16.497,24.650 L16.383,24.414 L13.978,20.168 C13.749,19.696 13.176,19.578 12.718,19.814 L12.603,19.814 L10.886,20.758 C10.542,20.994 10.199,20.876 9.970,20.522 C9.855,20.404 9.855,20.286 9.855,20.168 L9.855,20.050 L11.229,11.675 C11.344,11.439 11.458,11.203 11.802,11.085 C12.031,10.849 12.374,10.849 12.603,10.967 L20.276,13.916 L20.391,13.916 C20.505,13.916 20.505,14.034 20.620,14.152 C20.849,14.506 20.734,14.860 20.391,15.096 L18.673,16.157 L18.558,16.157 C18.215,16.393 17.986,16.865 18.215,17.337 L18.329,17.573 L20.620,21.701 L20.963,22.055 C21.078,22.409 20.963,22.999 20.505,23.235 ZM10.428,2.356 C5.961,2.356 2.297,5.895 2.297,10.378 C2.297,13.444 4.129,16.275 6.992,17.691 L6.076,19.814 C2.411,18.045 0.006,14.388 0.006,10.378 C0.006,4.598 4.702,-0.003 10.428,-0.003 C16.154,-0.003 20.849,4.598 20.849,10.378 L18.558,10.378 C18.558,5.895 14.894,2.356 10.428,2.356 ZM4.931,10.614 C4.931,7.429 7.450,4.951 10.428,4.951 C13.062,4.951 15.352,6.839 15.925,9.552 L13.634,10.024 C13.291,8.490 12.031,7.311 10.428,7.311 C8.595,7.311 7.221,8.844 7.221,10.614 C7.221,11.911 7.908,13.091 9.053,13.680 L8.137,15.803 C6.190,14.860 4.931,12.855 4.931,10.614 Z" fill="url(#grad1)"/>
</svg>
