<?xml version="1.0" encoding="utf-8"?>
<!-- Generator: Adobe Illustrator 19.2.1, SVG Export Plug-In . SVG Version: 6.00 Build 0)  -->
<svg version="1.1" id="Layer_1" xmlns="http://www.w3.org/2000/svg" xmlns:xlink="http://www.w3.org/1999/xlink" x="0px" y="0px"
	 viewBox="0 0 34 34" style="enable-background:new 0 0 34 34;" xml:space="preserve">
<style type="text/css">
	.st0{fill:url(#SVGID_1_);}
</style>
<g>
	<g>
		
			<linearGradient id="SVGID_1_" gradientUnits="userSpaceOnUse" x1="17.5" y1="8" x2="17.5" y2="25" gradientTransform="matrix(1 0 0 -1 0 34)">
			<stop  offset="0" style="stop-color:#FCB3A4"/>
			<stop  offset="1" style="stop-color:#DA5899"/>
		</linearGradient>
		<path class="st0" d="M22,20c0,1.7-1.3,3-3,3h-3c-1.7,0-3-1.3-3-3v-1h-3v4c0,1.7,1.3,3,3,3h10c1.7,0,2-1.3,2-3v-4h-3V20z M23,12h-2
			v-1c0-1.1-0.9-2-2-2h-3c-1.1,0-2,0.9-2,2v1h-2c-1.7,0-3,1.3-3,3v2h17v-2C26,13.3,24.7,12,23,12z M19,12h-3v-1h3V12z M19,21
			c0.6,0,1-0.4,1-1v-1h-5v1c0,0.6,0.4,1,1,1H19z"/>
	</g>
</g>
</svg>
