<svg 
 xmlns="http://www.w3.org/2000/svg"
 xmlns:xlink="http://www.w3.org/1999/xlink"
 width="55px" height="55px">
<defs>
<linearGradient id="PSgrad_0" x1="0%" x2="0%" y1="100%" y2="0%">
  <stop offset="0%" stop-color="rgb(252,174,162)" stop-opacity="1" />
  <stop offset="52%" stop-color="rgb(237,129,157)" stop-opacity="1" />
  <stop offset="100%" stop-color="rgb(221,83,152)" stop-opacity="1" />
</linearGradient>

</defs>
<path fill-rule="evenodd"  fill-opacity="0" fill="rgb(65, 65, 65)"
 d="M52.000,30.946 C50.343,30.946 49.000,29.605 49.000,27.951 C49.000,26.297 50.343,24.956 52.000,24.956 C53.657,24.956 55.000,26.297 55.000,27.951 C55.000,29.605 53.657,30.946 52.000,30.946 ZM45.000,47.916 C43.343,47.916 42.000,46.576 42.000,44.921 C42.000,43.267 43.343,41.927 45.000,41.927 C46.657,41.927 48.000,43.267 48.000,44.921 C48.000,46.576 46.657,47.916 45.000,47.916 ZM46.000,27.951 C46.000,28.502 45.552,28.950 45.000,28.950 C44.448,28.950 44.000,28.502 44.000,27.951 C44.000,27.400 44.448,26.953 45.000,26.953 C45.552,26.953 46.000,27.400 46.000,27.951 ZM45.000,12.977 C43.343,12.977 42.000,11.637 42.000,9.983 C42.000,8.328 43.343,6.988 45.000,6.988 C46.657,6.988 48.000,8.328 48.000,9.983 C48.000,11.637 46.657,12.977 45.000,12.977 ZM41.000,28.950 C40.448,28.950 40.000,28.502 40.000,27.951 C40.000,27.400 40.448,26.953 41.000,26.953 C41.552,26.953 42.000,27.400 42.000,27.951 C42.000,28.502 41.552,28.950 41.000,28.950 ZM40.000,15.972 C39.448,15.972 39.000,15.525 39.000,14.974 C39.000,14.423 39.448,13.975 40.000,13.975 C40.552,13.975 41.000,14.423 41.000,14.974 C41.000,15.525 40.552,15.972 40.000,15.972 ZM37.000,37.933 C36.448,37.933 36.000,37.487 36.000,36.935 C36.000,36.384 36.448,35.937 37.000,35.937 C37.552,35.937 38.000,36.384 38.000,36.935 C38.000,37.487 37.552,37.933 37.000,37.933 ZM37.000,18.967 C36.448,18.967 36.000,18.520 36.000,17.969 C36.000,17.417 36.448,16.970 37.000,16.970 C37.552,16.970 38.000,17.417 38.000,17.969 C38.000,18.520 37.552,18.967 37.000,18.967 ZM27.500,35.937 C22.806,35.937 19.000,32.138 19.000,27.452 C19.000,22.766 22.806,18.967 27.500,18.967 C32.194,18.967 36.000,22.766 36.000,27.452 C36.000,32.138 32.194,35.937 27.500,35.937 ZM27.500,21.962 C24.462,21.962 22.000,24.420 22.000,27.452 C22.000,30.484 24.462,32.942 27.500,32.942 C30.538,32.942 33.000,30.484 33.000,27.452 C33.000,24.420 30.538,21.962 27.500,21.962 ZM27.000,12.977 C27.552,12.977 28.000,13.424 28.000,13.975 C28.000,14.527 27.552,14.974 27.000,14.974 C26.448,14.974 26.000,14.527 26.000,13.975 C26.000,13.424 26.448,12.977 27.000,12.977 ZM27.000,8.984 C27.552,8.984 28.000,9.431 28.000,9.983 C28.000,10.534 27.552,10.981 27.000,10.981 C26.448,10.981 26.000,10.534 26.000,9.983 C26.000,9.431 26.448,8.984 27.000,8.984 ZM27.000,5.990 C25.343,5.990 24.000,4.649 24.000,2.995 C24.000,1.341 25.343,-0.000 27.000,-0.000 C28.657,-0.000 30.000,1.341 30.000,2.995 C30.000,4.649 28.657,5.990 27.000,5.990 ZM17.000,37.933 C16.448,37.933 16.000,37.487 16.000,36.935 C16.000,36.384 16.448,35.937 17.000,35.937 C17.552,35.937 18.000,36.384 18.000,36.935 C18.000,37.487 17.552,37.933 17.000,37.933 ZM17.000,18.967 C16.448,18.967 16.000,18.520 16.000,17.969 C16.000,17.417 16.448,16.970 17.000,16.970 C17.552,16.970 18.000,17.417 18.000,17.969 C18.000,18.520 17.552,18.967 17.000,18.967 ZM14.000,40.929 C13.448,40.929 13.000,40.481 13.000,39.930 C13.000,39.379 13.448,38.932 14.000,38.932 C14.552,38.932 15.000,39.379 15.000,39.930 C15.000,40.481 14.552,40.929 14.000,40.929 ZM14.000,28.950 C13.448,28.950 13.000,28.502 13.000,27.951 C13.000,27.400 13.448,26.953 14.000,26.953 C14.552,26.953 15.000,27.400 15.000,27.951 C15.000,28.502 14.552,28.950 14.000,28.950 ZM14.000,15.972 C13.448,15.972 13.000,15.525 13.000,14.974 C13.000,14.423 13.448,13.975 14.000,13.975 C14.552,13.975 15.000,14.423 15.000,14.974 C15.000,15.525 14.552,15.972 14.000,15.972 ZM9.000,47.916 C7.343,47.916 6.000,46.576 6.000,44.921 C6.000,43.267 7.343,41.927 9.000,41.927 C10.657,41.927 12.000,43.267 12.000,44.921 C12.000,46.576 10.657,47.916 9.000,47.916 ZM11.000,27.951 C11.000,28.502 10.552,28.950 10.000,28.950 C9.448,28.950 9.000,28.502 9.000,27.951 C9.000,27.400 9.448,26.953 10.000,26.953 C10.552,26.953 11.000,27.400 11.000,27.951 ZM9.000,12.977 C7.343,12.977 6.000,11.637 6.000,9.983 C6.000,8.328 7.343,6.988 9.000,6.988 C10.657,6.988 12.000,8.328 12.000,9.983 C12.000,11.637 10.657,12.977 9.000,12.977 ZM3.000,30.946 C1.343,30.946 0.000,29.605 0.000,27.951 C0.000,26.297 1.343,24.956 3.000,24.956 C4.657,24.956 6.000,26.297 6.000,27.951 C6.000,29.605 4.657,30.946 3.000,30.946 ZM27.000,41.927 C26.448,41.927 26.000,41.480 26.000,40.929 C26.000,40.377 26.448,39.930 27.000,39.930 C27.552,39.930 28.000,40.377 28.000,40.929 C28.000,41.480 27.552,41.927 27.000,41.927 ZM27.000,45.920 C26.448,45.920 26.000,45.473 26.000,44.921 C26.000,44.370 26.448,43.923 27.000,43.923 C27.552,43.923 28.000,44.370 28.000,44.921 C28.000,45.473 27.552,45.920 27.000,45.920 ZM27.000,48.914 C28.657,48.914 30.000,50.255 30.000,51.909 C30.000,53.563 28.657,54.904 27.000,54.904 C25.343,54.904 24.000,53.563 24.000,51.909 C24.000,50.255 25.343,48.914 27.000,48.914 ZM40.000,38.932 C40.552,38.932 41.000,39.379 41.000,39.930 C41.000,40.481 40.552,40.929 40.000,40.929 C39.448,40.929 39.000,40.481 39.000,39.930 C39.000,39.379 39.448,38.932 40.000,38.932 Z"/>
<path fill="url(#PSgrad_0)"
 d="M52.000,30.946 C50.343,30.946 49.000,29.605 49.000,27.951 C49.000,26.297 50.343,24.956 52.000,24.956 C53.657,24.956 55.000,26.297 55.000,27.951 C55.000,29.605 53.657,30.946 52.000,30.946 ZM45.000,47.916 C43.343,47.916 42.000,46.576 42.000,44.921 C42.000,43.267 43.343,41.927 45.000,41.927 C46.657,41.927 48.000,43.267 48.000,44.921 C48.000,46.576 46.657,47.916 45.000,47.916 ZM46.000,27.951 C46.000,28.502 45.552,28.950 45.000,28.950 C44.448,28.950 44.000,28.502 44.000,27.951 C44.000,27.400 44.448,26.953 45.000,26.953 C45.552,26.953 46.000,27.400 46.000,27.951 ZM45.000,12.977 C43.343,12.977 42.000,11.637 42.000,9.983 C42.000,8.328 43.343,6.988 45.000,6.988 C46.657,6.988 48.000,8.328 48.000,9.983 C48.000,11.637 46.657,12.977 45.000,12.977 ZM41.000,28.950 C40.448,28.950 40.000,28.502 40.000,27.951 C40.000,27.400 40.448,26.953 41.000,26.953 C41.552,26.953 42.000,27.400 42.000,27.951 C42.000,28.502 41.552,28.950 41.000,28.950 ZM40.000,15.972 C39.448,15.972 39.000,15.525 39.000,14.974 C39.000,14.423 39.448,13.975 40.000,13.975 C40.552,13.975 41.000,14.423 41.000,14.974 C41.000,15.525 40.552,15.972 40.000,15.972 ZM37.000,37.933 C36.448,37.933 36.000,37.487 36.000,36.935 C36.000,36.384 36.448,35.937 37.000,35.937 C37.552,35.937 38.000,36.384 38.000,36.935 C38.000,37.487 37.552,37.933 37.000,37.933 ZM37.000,18.967 C36.448,18.967 36.000,18.520 36.000,17.969 C36.000,17.417 36.448,16.970 37.000,16.970 C37.552,16.970 38.000,17.417 38.000,17.969 C38.000,18.520 37.552,18.967 37.000,18.967 ZM27.500,35.937 C22.806,35.937 19.000,32.138 19.000,27.452 C19.000,22.766 22.806,18.967 27.500,18.967 C32.194,18.967 36.000,22.766 36.000,27.452 C36.000,32.138 32.194,35.937 27.500,35.937 ZM27.500,21.962 C24.462,21.962 22.000,24.420 22.000,27.452 C22.000,30.484 24.462,32.942 27.500,32.942 C30.538,32.942 33.000,30.484 33.000,27.452 C33.000,24.420 30.538,21.962 27.500,21.962 ZM27.000,12.977 C27.552,12.977 28.000,13.424 28.000,13.975 C28.000,14.527 27.552,14.974 27.000,14.974 C26.448,14.974 26.000,14.527 26.000,13.975 C26.000,13.424 26.448,12.977 27.000,12.977 ZM27.000,8.984 C27.552,8.984 28.000,9.431 28.000,9.983 C28.000,10.534 27.552,10.981 27.000,10.981 C26.448,10.981 26.000,10.534 26.000,9.983 C26.000,9.431 26.448,8.984 27.000,8.984 ZM27.000,5.990 C25.343,5.990 24.000,4.649 24.000,2.995 C24.000,1.341 25.343,-0.000 27.000,-0.000 C28.657,-0.000 30.000,1.341 30.000,2.995 C30.000,4.649 28.657,5.990 27.000,5.990 ZM17.000,37.933 C16.448,37.933 16.000,37.487 16.000,36.935 C16.000,36.384 16.448,35.937 17.000,35.937 C17.552,35.937 18.000,36.384 18.000,36.935 C18.000,37.487 17.552,37.933 17.000,37.933 ZM17.000,18.967 C16.448,18.967 16.000,18.520 16.000,17.969 C16.000,17.417 16.448,16.970 17.000,16.970 C17.552,16.970 18.000,17.417 18.000,17.969 C18.000,18.520 17.552,18.967 17.000,18.967 ZM14.000,40.929 C13.448,40.929 13.000,40.481 13.000,39.930 C13.000,39.379 13.448,38.932 14.000,38.932 C14.552,38.932 15.000,39.379 15.000,39.930 C15.000,40.481 14.552,40.929 14.000,40.929 ZM14.000,28.950 C13.448,28.950 13.000,28.502 13.000,27.951 C13.000,27.400 13.448,26.953 14.000,26.953 C14.552,26.953 15.000,27.400 15.000,27.951 C15.000,28.502 14.552,28.950 14.000,28.950 ZM14.000,15.972 C13.448,15.972 13.000,15.525 13.000,14.974 C13.000,14.423 13.448,13.975 14.000,13.975 C14.552,13.975 15.000,14.423 15.000,14.974 C15.000,15.525 14.552,15.972 14.000,15.972 ZM9.000,47.916 C7.343,47.916 6.000,46.576 6.000,44.921 C6.000,43.267 7.343,41.927 9.000,41.927 C10.657,41.927 12.000,43.267 12.000,44.921 C12.000,46.576 10.657,47.916 9.000,47.916 ZM11.000,27.951 C11.000,28.502 10.552,28.950 10.000,28.950 C9.448,28.950 9.000,28.502 9.000,27.951 C9.000,27.400 9.448,26.953 10.000,26.953 C10.552,26.953 11.000,27.400 11.000,27.951 ZM9.000,12.977 C7.343,12.977 6.000,11.637 6.000,9.983 C6.000,8.328 7.343,6.988 9.000,6.988 C10.657,6.988 12.000,8.328 12.000,9.983 C12.000,11.637 10.657,12.977 9.000,12.977 ZM3.000,30.946 C1.343,30.946 0.000,29.605 0.000,27.951 C0.000,26.297 1.343,24.956 3.000,24.956 C4.657,24.956 6.000,26.297 6.000,27.951 C6.000,29.605 4.657,30.946 3.000,30.946 ZM27.000,41.927 C26.448,41.927 26.000,41.480 26.000,40.929 C26.000,40.377 26.448,39.930 27.000,39.930 C27.552,39.930 28.000,40.377 28.000,40.929 C28.000,41.480 27.552,41.927 27.000,41.927 ZM27.000,45.920 C26.448,45.920 26.000,45.473 26.000,44.921 C26.000,44.370 26.448,43.923 27.000,43.923 C27.552,43.923 28.000,44.370 28.000,44.921 C28.000,45.473 27.552,45.920 27.000,45.920 ZM27.000,48.914 C28.657,48.914 30.000,50.255 30.000,51.909 C30.000,53.563 28.657,54.904 27.000,54.904 C25.343,54.904 24.000,53.563 24.000,51.909 C24.000,50.255 25.343,48.914 27.000,48.914 ZM40.000,38.932 C40.552,38.932 41.000,39.379 41.000,39.930 C41.000,40.481 40.552,40.929 40.000,40.929 C39.448,40.929 39.000,40.481 39.000,39.930 C39.000,39.379 39.448,38.932 40.000,38.932 Z"/>
</svg>