<?xml version="1.0" encoding="utf-8"?>
<!-- Generator: Adobe Illustrator 19.2.1, SVG Export Plug-In . SVG Version: 6.00 Build 0)  -->
<svg version="1.1" id="Layer_1" xmlns="http://www.w3.org/2000/svg" xmlns:xlink="http://www.w3.org/1999/xlink" x="0px" y="0px"
	 viewBox="0 0 34 34" style="enable-background:new 0 0 34 34;" xml:space="preserve">
<style type="text/css">
	.st0{fill:url(#SVGID_1_);}
</style>
<linearGradient id="SVGID_1_" gradientUnits="userSpaceOnUse" x1="17.0084" y1="24" x2="17.0084" y2="10.0203">
	<stop  offset="0" style="stop-color:#C0CDDD"/>
	<stop  offset="1" style="stop-color:#8899AE"/>
</linearGradient>
<path class="st0" d="M13.1,24h-2.9v-9.3h2.9V24z M11.7,13.4c-0.9,0-1.7-0.8-1.7-1.7c0-0.9,0.8-1.7,1.7-1.7c0.9,0,1.7,0.8,1.7,1.7
	C13.4,12.6,12.6,13.4,11.7,13.4z M24,24h-2.9v-4.5c0-1.1,0-2.5-1.5-2.5c-1.5,0-1.7,1.2-1.7,2.4V24H15v-9.3h2.8v1.3h0
	c0.4-0.7,1.3-1.5,2.7-1.5c2.9,0,3.5,1.9,3.5,4.4V24z"/>
</svg>
