<svg id="Layer_1" xmlns="http://www.w3.org/2000/svg" viewBox="0 0 29 26"><style>.st0{fill:url(#SVGID_1_)}.st1{fill:url(#SVGID_2_)}</style><linearGradient id="SVGID_1_" gradientUnits="userSpaceOnUse" x1="25.356" y1="6.79" x2="25.356" y2="28" gradientTransform="matrix(1 0 0 -1 0 28)"><stop offset="0" stop-color="#faa5a0"/><stop offset="1" stop-color="#e56c9a"/></linearGradient><path class="st0" d="M27.9 11.7h-2.1c-.1-.7-.2-1.3-.4-2 0-.1 0-.2-.1-.3h2.5c.6 0 1.1.5 1.1 1.1.1.7-.4 1.2-1 1.2zm-4.7-7.8c-.4-.7-.9-1.3-1.4-1.9L23.2.4c.4-.5 1.1-.5 1.6-.1s.5 1.1.1 1.6l-1.7 2zm2.5 13.7l2.3 1.5c.5.4.6 1.1.3 1.6-.4.5-1.1.6-1.7.3L25 19.9c.3-.6.5-1.4.7-2.3z"/><linearGradient id="SVGID_2_" gradientUnits="userSpaceOnUse" x1="12.196" y1="25.889" x2="12.196" y2="1.436"><stop offset="0" stop-color="#faa5a0"/><stop offset="1" stop-color="#e56c9a"/></linearGradient><path class="st1" d="M21.4 21.4H21.1c-5.6 1.2-6.8-3.7-12.4-2.5l-5 1.1c-1.3.2-2.9-1.7-3.5-4.5s0-5 1.2-5.4l5-1.1c5.7-1.2 4.6-6.2 10.2-7.5H16.9c2.7-.6 5.7 3.1 7 8.8s.1 10.5-2.5 11.1zm-14.9-.9c.8-.2 3-.7 3-.7.7-.2 1.1-.1 1.5.5s1 1.4 1 1.4l.3-.1c1-.2 2 .4 2.2 1.4s-.4 2-1.4 2.2l-2.7.6h-.1c-.9.2-1.7.2-2.7-1.5-1.1-1.8-1.8-3-1.8-3-.2-.1-.1-.6.7-.8z"/></svg>