<?xml version="1.0" encoding="utf-8"?>
<!-- Generator: Adobe Illustrator 19.2.1, SVG Export Plug-In . SVG Version: 6.00 Build 0)  -->
<svg version="1.1" id="Layer_1" xmlns="http://www.w3.org/2000/svg" xmlns:xlink="http://www.w3.org/1999/xlink" x="0px" y="0px"
	 viewBox="0 0 34 34" style="enable-background:new 0 0 34 34;" xml:space="preserve">
<style type="text/css">
	.st0{fill:url(#SVGID_1_);}
</style>
<linearGradient id="SVGID_1_" gradientUnits="userSpaceOnUse" x1="17.6112" y1="26" x2="17.6112" y2="8">
	<stop  offset="0" style="stop-color:#F3AFF7"/>
	<stop  offset="1" style="stop-color:#8776FA"/>
</linearGradient>
<path class="st0" d="M27.6,15.8c-0.1,0-0.2-0.1-0.3-0.1c-0.2-0.2-0.4-0.5-0.4-0.8c0,0,0-0.1,0-0.1c0,0,0-0.1,0-0.1c0,0,0,0,0,0
	c0-0.2,0-0.5,0-0.7c0-3.3-2.7-6-5.9-6c-2.1,0-3.9,1-4.9,2.6v0c0,0,0,0,0,0.1c0,0,0,0,0,0c-0.2,0.2-0.5,0.4-0.8,0.4
	c-0.2,0-0.3,0-0.5-0.1c0,0-0.1-0.1-0.1-0.1c-0.7-0.4-1.5-0.7-2.3-0.7c-2.3,0-4.2,1.9-4.2,4.2c0,0.1,0,0.3,0,0.4c0,0,0,0.1,0,0.1
	c0,0,0,0,0,0c0,0.3-0.2,0.6-0.4,0.8c0,0-0.1,0.1-0.1,0.1C6,16.7,5,18.3,5,20.2C5,23,7,26,9.7,26h4.6h1.4h0.5h2.8h0.5H21H25
	c2.7,0,5.2-3,5.2-5.8C30.2,18.3,29.1,16.6,27.6,15.8z"/>
</svg>
