<?xml version="1.0" encoding="utf-8"?>
<!-- Generator: Adobe Illustrator 19.2.1, SVG Export Plug-In . SVG Version: 6.00 Build 0)  -->
<svg version="1.1" id="Layer_1" xmlns="http://www.w3.org/2000/svg" xmlns:xlink="http://www.w3.org/1999/xlink" x="0px" y="0px"
	 viewBox="0 0 34 34" style="enable-background:new 0 0 34 34;" xml:space="preserve">
<style type="text/css">
	.st0{fill:url(#SVGID_1_);}
</style>
<linearGradient id="SVGID_1_" gradientUnits="userSpaceOnUse" x1="17.4992" y1="24.9992" x2="17.4992" y2="10.0017">
	<stop  offset="0" style="stop-color:#C0CDDD"/>
	<stop  offset="1" style="stop-color:#8899AE"/>
</linearGradient>
<path class="st0" d="M14.5,25c6.6-0.2,10.2-5.8,10.2-10.8c0-0.2,0-0.3,0-0.5c0.7-0.5,1.3-1.2,1.8-2c-0.7,0.3-1.4,0.5-2.1,0.6
	c0.8-0.5,1.3-1.2,1.6-2.1c-0.7,0.4-1.5,0.7-2.3,0.9C23,10.5,22,10,21,10c-2,0-3.7,1.7-3.7,3.8c0,0.3,0,0.6,0.1,0.9
	c-3.1-0.2-5.8-1.7-7.6-4c-0.3,0.6-0.5,1.2-0.5,1.9c0,1.3,0.7,2.5,1.6,3.2c-0.6,0-1.2-0.2-1.7-0.5c0,0,0,0,0,0c0,1.8,1.3,3.4,3,3.7
	c-0.3,0.1-0.6,0.1-1,0.1c-0.2,0-0.5,0-0.7-0.1c0.5,1.5,1.8,2.6,3.5,2.6c-1.3,1-2.9,1.6-4.6,1.6c-0.3,0-0.6,0-0.9-0.1v0
	c1.6,1,3.4,1.7,5.4,1.7H14.5"/>
</svg>
