<svg xmlns="http://www.w3.org/2000/svg" xmlns:xlink="http://www.w3.org/1999/xlink" preserveAspectRatio="xMidYMid" width="23.281" height="18.21" viewBox="0 0 23.281 18.21">
  <defs>
    <style>
      .cls-1 {
        fill: url(#linear-gradient-1);
        fill-rule: evenodd;
      }
    </style>

    <linearGradient id="linear-gradient-1" gradientUnits="userSpaceOnUse" x1="11.64" y1="18.21" x2="11.64">
      <stop offset="-0.125" stop-color="#0095cb"/>
      <stop offset="1.125" stop-color="#05428f"/>
    </linearGradient>
  </defs>
  <path d="M20.281,4.028 L3.000,4.028 C1.343,4.028 -0.000,2.684 -0.000,1.028 L-0.000,-0.004 L23.281,-0.004 L23.281,1.028 C23.281,2.684 21.938,4.028 20.281,4.028 ZM19.219,8.121 C19.219,9.778 17.876,11.121 16.219,11.121 L7.031,11.121 C5.374,11.121 4.031,9.778 4.031,8.121 L4.031,7.090 L19.219,7.090 L19.219,8.121 ZM15.188,15.215 C15.188,16.872 13.844,18.215 12.187,18.215 L11.094,18.215 C9.437,18.215 8.094,16.872 8.094,15.215 L8.094,14.152 L15.188,14.152 L15.188,15.215 Z" class="cls-1"/>
</svg>
