<svg xmlns="http://www.w3.org/2000/svg" xmlns:xlink="http://www.w3.org/1999/xlink" preserveAspectRatio="xMidYMid" width="21.25" height="24.28" viewBox="0 0 21.25 24.28">
  <defs>
    <style>
      .cls-1 {
        fill: url(#linear-gradient-1);
        fill-rule: evenodd;
      }
    </style>

    <linearGradient id="linear-gradient-1" gradientUnits="userSpaceOnUse" x1="10.625" x2="10.625" y2="24.28">
      <stop offset="-0.43" stop-color="#2c5ab2"/>
      <stop offset="-0.114" stop-color="#2c5ab2"/>
      <stop offset="0.798" stop-color="#1ea1d7"/>
      <stop offset="1.43" stop-color="#66d2ff"/>
    </linearGradient>
  </defs>
  <path d="M21.250,11.116 C21.250,22.872 10.113,24.283 10.113,24.283 L10.113,21.281 C4.484,21.012 -0.000,16.363 -0.000,10.651 C-0.000,4.766 4.757,-0.005 10.625,-0.005 C16.493,-0.005 21.250,4.766 21.250,10.651 C21.250,10.808 21.233,10.961 21.227,11.116 C21.234,11.116 21.242,11.116 21.250,11.116 ZM8.094,9.089 C6.972,9.089 6.062,9.998 6.062,11.120 C6.062,12.242 6.972,13.151 8.094,13.151 C9.216,13.151 10.125,12.242 10.125,11.120 C10.125,9.998 9.216,9.089 8.094,9.089 ZM14.156,9.089 C13.034,9.089 12.125,9.998 12.125,11.120 C12.125,12.242 13.034,13.151 14.156,13.151 C15.278,13.151 16.188,12.242 16.188,11.120 C16.188,9.998 15.278,9.089 14.156,9.089 Z" class="cls-1"/>
</svg>
